<svg width="19" height="19" viewBox="0 0 19 19" fill="none" xmlns="http://www.w3.org/2000/svg">
<path d="M14.6008 18.9998C10.73 18.9948 7.01911 17.4518 4.28202 14.7093C1.54492 11.9668 0.00501729 8.24856 0 4.37004C0 3.21107 0.45949 2.09956 1.27739 1.28003C2.09529 0.460511 3.20459 0.000108578 4.36128 0.000108578C4.60621 -0.00176081 4.85073 0.0205127 5.09132 0.0666075C5.3239 0.101092 5.55254 0.158366 5.77395 0.237605C5.92967 0.292352 6.06844 0.38688 6.17652 0.51184C6.28461 0.6368 6.35827 0.787864 6.39022 0.950095L7.68912 6.65001C7.72413 6.80473 7.71991 6.96577 7.67686 7.11843C7.6338 7.2711 7.55327 7.41053 7.44261 7.524C7.31936 7.657 7.30988 7.6665 6.14371 8.27449C7.07759 10.3273 8.7161 11.9758 10.761 12.9199C11.3772 11.7419 11.3867 11.7324 11.5195 11.6089C11.6327 11.4981 11.7719 11.4174 11.9242 11.3742C12.0766 11.3311 12.2373 11.3269 12.3917 11.3619L18.0803 12.6634C18.2371 12.6999 18.382 12.7757 18.5014 12.8837C18.6208 12.9917 18.7108 13.1284 18.763 13.2809C18.843 13.5064 18.9033 13.7384 18.9431 13.9744C18.9813 14.2132 19.0003 14.4546 19 14.6964C18.9825 15.8504 18.5101 16.9507 17.6859 17.7569C16.8617 18.5632 15.7526 19.01 14.6008 18.9998ZM4.36128 1.90008C3.70827 1.90258 3.08272 2.16361 2.62097 2.62628C2.15922 3.08895 1.8987 3.71574 1.89621 4.37004C1.89872 7.74543 3.23804 10.9818 5.62007 13.3686C8.0021 15.7554 11.2321 17.0973 14.6008 17.0999C15.2538 17.0974 15.8794 16.8363 16.3411 16.3737C16.8029 15.911 17.0634 15.2842 17.0659 14.6299V14.3164L12.6667 13.2999L12.3917 13.8224C11.9651 14.6489 11.6522 15.2474 10.8558 14.9244C9.28466 14.3609 7.85854 13.4538 6.68103 12.2691C5.50353 11.0843 4.6042 9.65157 4.0484 8.07499C3.70708 7.334 4.3518 6.99201 5.16716 6.56451L5.68862 6.30802L4.67415 1.90008H4.36128Z" fill="#FBFBFB"/>
</svg>
