<svg width="22" height="17" viewBox="0 0 22 17" fill="none" xmlns="http://www.w3.org/2000/svg">
<path d="M13.1364 13.9091H1.54545L1.54314 2.24554L10.3785 8.36245C10.5077 8.45185 10.6611 8.49973 10.8182 8.49973C10.9753 8.49973 11.1287 8.45185 11.2579 8.36245L20.0909 2.24864V9.27272H21.6364V1.54545C21.6357 1.13576 21.4727 0.743026 21.183 0.45333C20.8933 0.163634 20.5006 0.000613159 20.0909 0H1.54545C1.1357 0.000409141 0.742845 0.163365 0.453105 0.453105C0.163365 0.742845 0.000409141 1.1357 0 1.54545V13.9091C0.000613159 14.3188 0.163634 14.7115 0.45333 15.0012C0.743026 15.2909 1.13576 15.4539 1.54545 15.4545H13.1364V13.9091ZM18.3901 1.54545L10.8182 6.78763L3.24623 1.54545H18.3901Z" fill="#FBFBFB"/>
<path d="M18.544 16.9999C20.2511 16.9999 21.6349 15.6161 21.6349 13.909C21.6349 12.202 20.2511 10.8181 18.544 10.8181C16.837 10.8181 15.4531 12.202 15.4531 13.909C15.4531 15.6161 16.837 16.9999 18.544 16.9999Z" fill="#FBFBFB"/>
</svg>
