<svg width="19" height="25" viewBox="0 0 19 25" fill="none" xmlns="http://www.w3.org/2000/svg">
<path d="M10.0957 22.9893C9.76114 23.3385 9.23886 23.3385 8.90427 22.9893C7.61964 21.6487 5.61905 19.4112 3.94595 16.8902C2.24872 14.3328 1 11.6466 1 9.375C1 7.15812 1.89227 5.02932 3.48489 3.45765C5.07797 1.88554 7.24142 1 9.5 1C11.7586 1 13.922 1.88554 15.5151 3.45765C17.1077 5.02932 18 7.15812 18 9.375C18 11.6466 16.7513 14.3328 15.0541 16.8902C13.3809 19.4112 11.3804 21.6487 10.0957 22.9893Z" stroke="#FBFBFB" stroke-width="2"/>
<circle cx="9.5" cy="8.5" r="3.5" stroke="#FBFBFB" stroke-width="2"/>
</svg>
