<svg width="51" height="52" viewBox="0 0 51 52" fill="none" xmlns="http://www.w3.org/2000/svg">
<circle cx="25.4368" cy="25.855" r="25.4368" fill="white" fill-opacity="0.15"/>
<path d="M36.8015 21.5717C36.9555 21.1079 36.8015 20.7678 36.0732 20.7678H33.6606C33.0467 20.7678 32.7662 21.062 32.6121 21.3852C32.6121 21.3852 31.3855 24.097 29.6472 25.8553C29.0862 26.367 28.8298 26.5285 28.524 26.5285C28.3711 26.5285 28.1488 26.367 28.1488 25.9032V21.5717C28.1488 21.0152 27.9717 20.7678 27.4601 20.7678H23.669C23.2862 20.7678 23.0552 21.0251 23.0552 21.2705C23.0552 21.7971 23.9243 21.9188 24.0134 23.4028V26.6223C24.0134 27.3274 23.8737 27.4561 23.5656 27.4561C22.7482 27.4561 20.7592 24.7343 19.5787 21.6186C19.3488 21.0132 19.1166 20.7688 18.5006 20.7688H16.089C15.3992 20.7688 15.2617 21.063 15.2617 21.3862C15.2617 21.9666 16.0791 24.839 19.0693 28.6379C21.0628 31.2321 23.8693 32.6383 26.426 32.6383C27.9585 32.6383 28.1477 32.3262 28.1477 31.7876V29.8268C28.1477 29.2024 28.2941 29.0768 28.7792 29.0768C29.1357 29.0768 29.7496 29.2403 31.1808 30.49C32.8157 31.9721 33.0863 32.6373 34.0049 32.6373H36.4164C37.1051 32.6373 37.4495 32.3252 37.2515 31.7088C37.0347 31.0954 36.2536 30.2028 35.2173 29.1466C34.654 28.5442 33.8124 27.8959 33.5561 27.5718C33.1985 27.1539 33.3019 26.9694 33.5561 26.5984C33.5572 26.5994 36.4957 22.8473 36.8015 21.5717Z" fill="white"/>
</svg>
