<svg width="48" height="48" viewBox="0 0 48 48" fill="none" xmlns="http://www.w3.org/2000/svg">
<path opacity="0.1" d="M47.9499 21.1057C47.9499 32.7621 38.5104 42.2115 26.8661 42.2115C15.2218 42.2115 5.78223 32.7621 5.78223 21.1057C5.78223 9.44936 15.2218 0 26.8661 0C38.5104 0 47.9499 9.44936 47.9499 21.1057Z" fill="#61C0C5"/>
<path fill-rule="evenodd" clip-rule="evenodd" d="M11.6803 34.0254C17.0246 34.0254 21.3605 29.6879 21.3605 24.333C21.3605 18.9781 17.0246 14.6406 11.6803 14.6406C6.33595 14.6406 2 18.9781 2 24.333C2 29.6879 6.33595 34.0254 11.6803 34.0254ZM11.6803 36.0254C18.1311 36.0254 23.3605 30.7905 23.3605 24.333C23.3605 17.8755 18.1311 12.6406 11.6803 12.6406C5.22943 12.6406 0 17.8755 0 24.333C0 30.7905 5.22943 36.0254 11.6803 36.0254Z" fill="#61C0C5"/>
<path fill-rule="evenodd" clip-rule="evenodd" d="M18.0481 22.0609C17.9078 21.6663 17.7306 21.2841 17.518 20.9195C16.9142 19.8838 16.0465 19.0276 15.004 18.4381C13.9615 17.8486 12.7814 17.547 11.5845 17.5639C11.163 17.5699 10.7448 17.6152 10.335 17.6985C10.3284 17.6999 10.323 17.7012 10.3187 17.7023C10.3147 17.7105 10.3095 17.7229 10.3041 17.7404C10.2664 17.8638 10.2672 18.109 10.4172 18.3581L12.5187 21.8484C12.6996 22.1488 13.0247 22.3325 13.3754 22.3325H17.4401C17.7311 22.3325 17.9416 22.2066 18.028 22.1104C18.0405 22.0964 18.0486 22.0854 18.0535 22.0776C18.0523 22.0732 18.0505 22.0676 18.0481 22.0609ZM18.0608 22.0643C18.0608 22.0643 18.0607 22.0646 18.0604 22.0654ZM19.9324 21.3906C20.4878 22.9516 19.097 24.3325 17.4401 24.3325H13.3754C12.3233 24.3325 11.3481 23.7814 10.8054 22.88L8.70378 19.3898C7.84968 17.9713 8.31404 16.0685 9.93664 15.7386C10.4678 15.6307 11.0099 15.5718 11.5562 15.5641C13.1077 15.5422 14.6373 15.9332 15.9884 16.6971C17.3395 17.4611 18.4636 18.5706 19.2458 19.9122C19.5211 20.3844 19.7506 20.8795 19.9324 21.3906Z" fill="#61C0C5"/>
<path fill-rule="evenodd" clip-rule="evenodd" d="M21.1937 34.5884C21.5844 34.1981 22.2175 34.1984 22.6079 34.5892L33.5581 45.5508C33.9484 45.9415 33.9481 46.5747 33.5574 46.965C33.1666 47.3553 32.5335 47.355 32.1432 46.9642L21.1929 36.0026C20.8026 35.6119 20.8029 34.9787 21.1937 34.5884Z" fill="#61C0C5"/>
</svg>
