<svg width="56" height="56" viewBox="0 0 56 56" fill="none" xmlns="http://www.w3.org/2000/svg">
<g filter="url(#filter0_d_1567_10049)">
<path opacity="0.1" d="M51.9499 21.1057C51.9499 32.7621 42.5104 42.2115 30.8661 42.2115C19.2218 42.2115 9.78223 32.7621 9.78223 21.1057C9.78223 9.44936 19.2218 0 30.8661 0C42.5104 0 51.9499 9.44936 51.9499 21.1057Z" fill="#61C0C5"/>
<path d="M26.3605 24.333C26.3605 30.2392 21.5778 35.0254 15.6803 35.0254C9.78269 35.0254 5 30.2392 5 24.333C5 18.4268 9.78269 13.6406 15.6803 13.6406C21.5778 13.6406 26.3605 18.4268 26.3605 24.333Z" stroke="#61C0C5" stroke-width="2" stroke-linejoin="round"/>
<mask id="path-3-inside-1_1567_10049" fill="white">
<path d="M21.4403 24.3325C23.0972 24.3325 24.4879 22.9516 23.9326 21.3906C23.7508 20.8795 23.5213 20.3844 23.2459 19.9122C22.4638 18.5706 21.3396 17.4611 19.9885 16.6971C18.6375 15.9332 17.1079 15.5422 15.5563 15.5641C15.0101 15.5718 14.468 15.6307 13.9368 15.7386C12.3142 16.0685 11.8498 17.9713 12.704 19.3898L14.8055 22.88C15.3482 23.7814 16.3235 24.3325 17.3756 24.3325H21.4403Z"/>
</mask>
<path d="M21.4403 24.3325C23.0972 24.3325 24.4879 22.9516 23.9326 21.3906C23.7508 20.8795 23.5213 20.3844 23.2459 19.9122C22.4638 18.5706 21.3396 17.4611 19.9885 16.6971C18.6375 15.9332 17.1079 15.5422 15.5563 15.5641C15.0101 15.5718 14.468 15.6307 13.9368 15.7386C12.3142 16.0685 11.8498 17.9713 12.704 19.3898L14.8055 22.88C15.3482 23.7814 16.3235 24.3325 17.3756 24.3325H21.4403Z" stroke="#61C0C5" stroke-width="4" stroke-linejoin="round" mask="url(#path-3-inside-1_1567_10049)"/>
<path d="M36.8506 46.2575L25.9004 35.2959" stroke="#61C0C5" stroke-width="2" stroke-linecap="round" stroke-linejoin="round"/>
</g>
<defs>
<filter id="filter0_d_1567_10049" x="0" y="0" width="55.9502" height="55.2576" filterUnits="userSpaceOnUse" color-interpolation-filters="sRGB">
<feFlood flood-opacity="0" result="BackgroundImageFix"/>
<feColorMatrix in="SourceAlpha" type="matrix" values="0 0 0 0 0 0 0 0 0 0 0 0 0 0 0 0 0 0 127 0" result="hardAlpha"/>
<feOffset dy="4"/>
<feGaussianBlur stdDeviation="2"/>
<feComposite in2="hardAlpha" operator="out"/>
<feColorMatrix type="matrix" values="0 0 0 0 0 0 0 0 0 0 0 0 0 0 0 0 0 0 0.25 0"/>
<feBlend mode="normal" in2="BackgroundImageFix" result="effect1_dropShadow_1567_10049"/>
<feBlend mode="normal" in="SourceGraphic" in2="effect1_dropShadow_1567_10049" result="shape"/>
</filter>
</defs>
</svg>
