<svg width="48" height="49" viewBox="0 0 48 49" fill="none" xmlns="http://www.w3.org/2000/svg">
<path opacity="0.1" d="M47.9507 21.0958C47.9507 32.7468 38.5155 42.1917 26.8767 42.1917C15.2379 42.1917 5.80273 32.7468 5.80273 21.0958C5.80273 9.44493 15.2379 0 26.8767 0C38.5155 0 47.9507 9.44493 47.9507 21.0958Z" fill="#61C0C5"/>
<path d="M5.79492 23.4253L24.6277 23.4253" stroke="#61C0C5" stroke-width="2" stroke-linecap="round" stroke-linejoin="round"/>
<path d="M5.79395 27.5215L24.6267 27.5215" stroke="#61C0C5" stroke-width="2" stroke-linecap="round" stroke-linejoin="round"/>
<path d="M8.69141 31.6172H21.7295" stroke="#61C0C5" stroke-width="2" stroke-linecap="round" stroke-linejoin="round"/>
<path d="M11.5879 43.5347H18.8313" stroke="#61C0C5" stroke-width="2" stroke-linecap="round" stroke-linejoin="round"/>
<rect x="1" y="9.67969" width="28.4222" height="38.218" rx="2" stroke="#61C0C5" stroke-width="2" stroke-linecap="round" stroke-linejoin="round"/>
<path d="M26.076 8.679V8.679C26.076 7.19822 24.8755 5.9978 23.3948 5.9978H23.1786C21.5784 5.9978 20.2812 7.29499 20.2812 8.89516V14.5496C20.2812 15.7497 21.2541 16.7226 22.4543 16.7226V16.7226C23.6544 16.7226 24.6273 15.7497 24.6273 14.5496V12.7008" stroke="#61C0C5" stroke-width="2"/>
</svg>
