<svg width="50" height="48" viewBox="0 0 50 48" fill="none" xmlns="http://www.w3.org/2000/svg">
<path opacity="0.1" d="M49.5773 20.9249C49.5773 32.4814 39.8611 41.8498 27.8755 41.8498C15.89 41.8498 6.17383 32.4814 6.17383 20.9249C6.17383 9.36839 15.89 0 27.8755 0C39.8611 0 49.5773 9.36839 49.5773 20.9249Z" fill="#61C0C5"/>
<path d="M17.3373 25.1075C17.3373 28.2398 14.6932 30.8407 11.3542 30.8407C8.01515 30.8407 5.37109 28.2398 5.37109 25.1075C5.37109 21.9752 8.01515 19.3744 11.3542 19.3744C14.6932 19.3744 17.3373 21.9752 17.3373 25.1075Z" stroke="#61C0C6" stroke-width="2"/>
<path d="M34.0951 19.7212C34.0951 22.8534 31.4511 25.4543 28.112 25.4543C24.773 25.4543 22.1289 22.8534 22.1289 19.7212C22.1289 16.5889 24.773 13.988 28.112 13.988C31.4511 13.988 34.0951 16.5889 34.0951 19.7212Z" stroke="#61C0C6" stroke-width="2"/>
<path d="M21.1308 48V41.5337C21.1308 37.6677 17.9968 34.5337 14.1308 34.5337H8.57813C4.71213 34.5337 1.57812 37.6677 1.57812 41.5337V48" stroke="#61C0C6" stroke-width="2"/>
<path d="M37.8906 42.6136V36.1473C37.8906 32.2813 34.7566 29.1473 30.8906 29.1473H25.3379C21.4719 29.1473 18.3379 32.2813 18.3379 36.1473V36.669" stroke="#61C0C6" stroke-width="2"/>
</svg>
