<svg width="49" height="50" viewBox="0 0 49 50" fill="none" xmlns="http://www.w3.org/2000/svg">
<path opacity="0.1" d="M48.95 21.7021C48.95 33.6878 39.2437 43.4042 27.2704 43.4042C15.2971 43.4042 5.59082 33.6878 5.59082 21.7021C5.59082 9.71636 15.2971 0 27.2704 0C39.2437 0 48.95 9.71636 48.95 21.7021Z" fill="#61C0C5"/>
<path d="M21.1084 37.2855L25.0003 41.1814L33.4327 32.7402" stroke="#61C0C5" stroke-width="2"/>
<path d="M29.5405 42.5213V47.974C29.5405 48.5263 29.0928 48.974 28.5405 48.974H2C1.44772 48.974 1 48.5263 1 47.974V11.0146C1 10.4624 1.44772 10.0146 2 10.0146H28.5405C29.0928 10.0146 29.5405 10.4624 29.5405 11.0146V31.4829" stroke="#61C0C5" stroke-width="2"/>
<path d="M4.89258 21.7019H25.6493" stroke="#61C0C5" stroke-width="2"/>
<path d="M4.89258 26.8972H25.6493" stroke="#61C0C5" stroke-width="2"/>
<path d="M4.89258 32.0916H25.6493" stroke="#61C0C5" stroke-width="2"/>
<path d="M4.89258 37.2861H16.5683" stroke="#61C0C5" stroke-width="2"/>
<path d="M4.89258 16.5073H25.6493" stroke="#61C0C5" stroke-width="2"/>
</svg>
