<svg width="276" height="60" viewBox="0 0 276 60" fill="none" xmlns="http://www.w3.org/2000/svg">
<path d="M25.8451 34.052H34.6488L39.1288 38.1992H21.3037L25.8451 34.052Z" fill="url(#paint0_linear_1524_8574)"/>
<path d="M60.5533 5.69213L30.3238 22.0837L0.0322266 5.64588L5.84556 0.0341835L30.3238 13.33L54.7536 0.0933113L60.5533 5.69213Z" fill="url(#paint1_linear_1524_8574)"/>
<path d="M60.5531 5.69164V14.3468L30.3207 30.8279L0.0283203 14.3999V5.6454L30.3207 22.087L60.5531 5.69164Z" fill="#2F385C"/>
<path d="M0 24.7996V41.709L5.10684 44.8556L5.10836 31.7508L9.9605 34.413L9.98552 47.8756L16.3984 51.9712L16.378 31.1633L0 22.261V24.7996Z" fill="#2E385C"/>
<path d="M0 24.7996V41.7089L5.10684 44.8555L5.10837 31.7507L9.96051 34.4129L16.378 31.1632L0 22.2609V24.7996Z" fill="url(#paint2_linear_1524_8574)"/>
<path d="M21.3037 55.0742V38.199H39.1288L39.1386 55.1765L32.7507 59.2305L32.7416 43.6712H27.8091V59.1926L21.3037 55.0742Z" fill="#2E385C"/>
<path d="M60.5195 24.7996V41.709L55.4127 44.8556L55.4112 31.7508L50.559 34.413L50.5348 47.8756L44.1211 51.9712L44.1423 31.1633L60.5195 22.261V24.7996Z" fill="#2E385C"/>
<path d="M60.5206 24.7996V41.7089L55.4137 44.8555L55.4122 31.7507L50.5601 34.4129L44.1426 31.1632L60.5206 22.2609V24.7996Z" fill="url(#paint3_linear_1524_8574)"/>
<path d="M235.974 40.5259H233.337L232.751 42.1371H231.188L233.876 35.3004H235.435L238.123 42.1371H236.56L235.974 40.5259ZM235.487 39.257L234.657 37.0122L233.824 39.257H235.487ZM227.3 36.5207H225.936V37.989H227.3C227.542 37.989 227.733 37.9222 227.872 37.7887C228.013 37.6553 228.083 37.4785 228.083 37.2548C228.083 37.0321 228.013 36.8544 227.872 36.7209C227.733 36.5875 227.542 36.5207 227.3 36.5207ZM225.936 40.9168H227.495C227.763 40.9168 227.985 40.8318 228.16 40.6637C228.338 40.4955 228.426 40.2867 228.426 40.0396C228.426 39.7926 228.338 39.582 228.16 39.413C227.985 39.2422 227.763 39.1573 227.495 39.1573H225.936V40.9168ZM227.566 42.1371H224.469V35.3004H227.401C228.021 35.3004 228.533 35.4815 228.938 35.8447C229.344 36.2052 229.545 36.6265 229.545 37.1066C229.545 37.2878 229.521 37.4603 229.469 37.6241C229.419 37.7887 229.354 37.924 229.274 38.0332C229.194 38.1406 229.116 38.2334 229.037 38.3105C228.96 38.3894 228.896 38.4431 228.846 38.4752L228.764 38.5229C228.795 38.5359 228.836 38.5541 228.885 38.5783C228.935 38.6026 229.025 38.6607 229.155 38.7543C229.285 38.8479 229.399 38.951 229.498 39.0611C229.595 39.1738 229.687 39.3255 229.767 39.517C229.849 39.7085 229.889 39.9157 229.889 40.135C229.889 40.6802 229.671 41.1525 229.237 41.546C228.801 41.9404 228.244 42.1371 227.566 42.1371ZM217.116 35.3004H222.485V36.6204H220.535V42.1371H219.071V36.6204H217.116V35.3004ZM212.839 35.1574C213.199 35.1574 213.54 35.2042 213.864 35.2969C214.188 35.3914 214.455 35.5058 214.663 35.6393C214.871 35.7727 215.055 35.9062 215.216 36.0397C215.376 36.1732 215.492 36.285 215.561 36.3777L215.671 36.5207L214.741 37.4507C214.722 37.4247 214.695 37.3883 214.663 37.3424C214.629 37.2973 214.554 37.2193 214.439 37.1066C214.323 36.9966 214.196 36.8986 214.059 36.8137C213.922 36.7296 213.744 36.6516 213.521 36.5797C213.297 36.5086 213.072 36.4739 212.839 36.4739C212.199 36.4739 211.665 36.6871 211.238 37.117C210.808 37.5461 210.593 38.08 210.593 38.7179C210.593 39.3575 210.808 39.8914 211.238 40.3205C211.665 40.7486 212.199 40.9636 212.839 40.9636C213.087 40.9636 213.324 40.9298 213.551 40.8613C213.779 40.7928 213.967 40.7131 214.117 40.6186C214.266 40.5241 214.398 40.4297 214.512 40.3361C214.628 40.2399 214.708 40.1566 214.76 40.0864L214.837 39.9876L215.719 40.9168C215.693 40.954 215.654 41.0043 215.602 41.0667C215.55 41.1283 215.433 41.2383 215.254 41.3952C215.075 41.5529 214.882 41.6908 214.676 41.8095C214.473 41.9308 214.203 42.0374 213.87 42.1371C213.538 42.2359 213.195 42.2853 212.839 42.2853C211.795 42.2853 210.917 41.9352 210.2 41.2383C209.484 40.5406 209.125 39.7007 209.125 38.7179C209.125 37.7367 209.484 36.8969 210.2 36.2026C210.917 35.5058 211.795 35.1574 212.839 35.1574ZM203.436 40.8206H204.8C205.092 40.8206 205.337 40.7261 205.532 40.5371C205.727 40.3491 205.825 40.1176 205.825 39.8438C205.825 39.5707 205.727 39.3393 205.532 39.1504C205.337 38.9606 205.092 38.8661 204.8 38.8661H203.436V40.8206ZM204.849 42.1371H201.968V35.3004H203.436V37.5461H204.849C205.551 37.5461 206.132 37.7662 206.595 38.2056C207.059 38.6468 207.289 39.192 207.289 39.8438C207.289 40.4955 207.059 41.0398 206.595 41.4793C206.132 41.917 205.551 42.1371 204.849 42.1371ZM199.302 35.3004V42.1371H197.838V36.6204H195.836V37.4031C195.836 38.3669 195.783 39.1738 195.677 39.8282C195.569 40.4808 195.413 40.9818 195.205 41.3311C194.996 41.6812 194.764 41.9274 194.507 42.0704C194.248 42.2134 193.943 42.2853 193.591 42.2853C193.448 42.2853 193.303 42.2706 193.156 42.2394C193.011 42.2082 192.902 42.1813 192.832 42.1562L192.714 42.1172V40.7209C192.876 40.7842 193.037 40.8171 193.2 40.8206C193.454 40.8206 193.66 40.7443 193.817 40.5891C193.975 40.4366 194.106 40.1012 194.212 39.5837C194.32 39.068 194.373 38.3435 194.373 37.4135V35.3004H199.302ZM187.658 40.8206H191.32V42.1371H186.191V35.3004H191.221V36.6204H187.658V37.989H190.438V39.3055H187.658V40.8206ZM178.838 35.3004H184.207V36.6204H182.257V42.1371H180.793V36.6204H178.838V35.3004ZM176.071 40.5259H173.436L172.849 42.1371H171.285L173.974 35.3004H175.533L178.222 42.1371H176.657L176.071 40.5259ZM175.585 39.257L174.755 37.0122L173.922 39.257H175.585ZM165.739 38.2802L168.104 35.3004H169.401V42.1371H167.938V37.579L165.739 40.3777L163.546 37.5981V42.1371H162.078V35.3004H163.399L165.739 38.2802ZM159.412 42.1371H157.949V37.7939L154.583 42.1371H153.309V35.3004H154.778V39.6487L158.144 35.3004H159.412V42.1371ZM150.644 35.3004V42.1371H149.179V39.3523H146.252V42.1371H144.784V35.3004H146.252V38.0366H149.179V35.3004H150.644ZM142.118 42.1371H140.655V37.7939L137.288 42.1371H136.016V35.3004H137.484V39.6487L140.85 35.3004H142.118V42.1371ZM131.3 36.6204H129.936V38.5714H131.3C131.593 38.5714 131.837 38.4769 132.032 38.2897C132.227 38.1008 132.325 37.872 132.325 37.5981C132.325 37.325 132.227 37.0936 132.032 36.9056C131.837 36.7149 131.593 36.6204 131.3 36.6204ZM128.468 35.3004H131.348C132.05 35.3004 132.633 35.5205 133.095 35.9608C133.558 36.4011 133.789 36.9454 133.789 37.5946C133.789 38.2464 133.558 38.7916 133.098 39.2301C132.637 39.6713 132.053 39.8914 131.348 39.8914H129.936V42.1371H128.468V35.3004ZM125.802 35.3004V42.1371H124.339V36.6204H121.459V42.1371H119.991V35.3004H125.802ZM113.859 37.4031C113.859 37.8572 113.821 38.2871 113.747 38.6901C113.672 39.094 113.583 39.4199 113.48 39.6669C113.376 39.9157 113.274 40.1306 113.167 40.3109C113.063 40.4921 112.975 40.6221 112.905 40.7018L112.786 40.8206H115.665V36.6204H113.859V37.4031ZM110.932 40.8206H111.322C111.348 40.7963 111.386 40.7556 111.434 40.7001C111.483 40.6429 111.571 40.5163 111.694 40.3179C111.818 40.1185 111.927 39.901 112.02 39.6617C112.115 39.4243 112.201 39.1018 112.279 38.6953C112.357 38.288 112.395 37.8572 112.395 37.4031V35.3004H117.13V40.8206H117.963V43.5525H116.495V42.1371H112.395V43.5525H110.932V40.8206ZM105.877 40.8206H109.538V42.1371H104.409V35.3004H109.439V36.6204H105.877V37.989H108.656V39.3055H105.877V40.8206ZM99.6928 36.6204H98.3285V38.5714H99.6928C99.9857 38.5714 100.229 38.4769 100.425 38.2897C100.62 38.1008 100.718 37.872 100.718 37.5981C100.718 37.325 100.62 37.0936 100.425 36.9056C100.229 36.7149 99.9857 36.6204 99.6928 36.6204ZM96.8611 35.3004H99.7413C100.443 35.3004 101.026 35.5205 101.488 35.9608C101.951 36.4011 102.182 36.9454 102.182 37.5946C102.182 38.2464 101.951 38.7916 101.491 39.2301C101.03 39.6713 100.446 39.8914 99.7413 39.8914H98.3285V42.1371H96.8611V35.3004ZM94.1951 35.3004V42.1371H92.7321V36.6204H89.8519V42.1371H88.3837V35.3004H94.1951ZM83.7198 42.1371H82.2568V37.7939L78.8895 42.1371H77.6172V35.3004H79.0846V39.6487L82.4518 35.3004H83.7198V42.1371ZM276 27.492H274.538V23.1488L271.171 27.492H269.898V20.6553H271.366V25.0036L274.733 20.6553H276V27.492ZM262.546 20.6553H267.914V21.9753H265.964V27.492H264.5V21.9753H262.546V20.6553ZM258.269 20.5122C258.628 20.5122 258.97 20.5591 259.294 20.6518C259.618 20.7463 259.885 20.8607 260.093 20.9941C260.301 21.1268 260.485 21.2611 260.646 21.3937C260.805 21.5272 260.922 21.6399 260.991 21.7326L261.1 21.8756L260.171 22.8056C260.152 22.7787 260.125 22.7432 260.093 22.6973C260.058 22.6522 259.984 22.5742 259.869 22.4615C259.752 22.3506 259.626 22.2535 259.489 22.1686C259.353 22.0845 259.173 22.0056 258.951 21.9345C258.728 21.8626 258.502 21.8279 258.269 21.8279C257.629 21.8279 257.095 22.0412 256.668 22.4711C256.238 22.901 256.023 23.4349 256.023 24.0728C256.023 24.7124 256.238 25.2463 256.668 25.6753C257.095 26.1035 257.629 26.3185 258.269 26.3185C258.516 26.3185 258.754 26.2847 258.981 26.2162C259.209 26.1477 259.396 26.068 259.546 25.9735C259.696 25.879 259.828 25.7846 259.941 25.6901C260.057 25.5939 260.138 25.5115 260.19 25.4413L260.267 25.3417L261.149 26.2717C261.123 26.3089 261.084 26.3592 261.032 26.4207C260.98 26.4831 260.863 26.5932 260.683 26.7492C260.505 26.9078 260.311 27.0456 260.106 27.1644C259.902 27.2849 259.633 27.3923 259.3 27.492C258.968 27.5908 258.625 27.6402 258.269 27.6402C257.225 27.6402 256.347 27.2901 255.629 26.5932C254.913 25.8955 254.555 25.0556 254.555 24.0728C254.555 23.0916 254.913 22.2518 255.629 21.5567C256.347 20.8607 257.225 20.5122 258.269 20.5122ZM246.322 26.5932C245.606 25.8955 245.249 25.0556 245.249 24.0728C245.249 23.0916 245.606 22.2518 246.322 21.5567C247.039 20.8607 247.918 20.5122 248.96 20.5122C250 20.5122 250.879 20.8607 251.596 21.5567C252.312 22.2518 252.67 23.0916 252.67 24.0728C252.67 25.0556 252.312 25.8955 251.596 26.5932C250.879 27.2901 250 27.6402 248.96 27.6402C247.918 27.6402 247.039 27.2901 246.322 26.5932ZM247.402 22.478C246.976 22.9122 246.764 23.4444 246.764 24.0762C246.764 24.7072 246.976 25.2377 247.402 25.671C247.829 26.1018 248.348 26.3185 248.96 26.3185C249.572 26.3185 250.089 26.1018 250.516 25.671C250.942 25.2377 251.155 24.7072 251.155 24.0762C251.155 23.4444 250.942 22.9122 250.516 22.478C250.089 22.0446 249.572 21.8279 248.96 21.8279C248.348 21.8279 247.829 22.0446 247.402 22.478ZM242.973 20.6553V27.492H241.509V24.7072H238.581V27.492H237.113V20.6553H238.581V23.3907H241.509V20.6553H242.973ZM234.447 20.6553V27.492H232.983V24.7072H230.055V27.492H228.587V20.6553H230.055V23.3907H232.983V20.6553H234.447ZM222.656 26.1755H226.317V27.492H221.187V20.6553H226.218V21.9753H222.656V23.3439H225.435V24.6604H222.656V26.1755ZM218.521 20.6553V27.492H217.057V21.9753H215.055V22.7579C215.055 23.7217 215.001 24.5287 214.896 25.1822C214.788 25.8348 214.632 26.3367 214.423 26.686C214.215 27.0361 213.983 27.2814 213.726 27.4244C213.467 27.5683 213.162 27.6402 212.809 27.6402C212.666 27.6402 212.522 27.6255 212.375 27.5943C212.231 27.5631 212.121 27.5353 212.051 27.5111L211.932 27.4721V26.0758C212.095 26.139 212.257 26.172 212.419 26.1755C212.673 26.1755 212.88 26.0983 213.036 25.944C213.193 25.7915 213.325 25.4561 213.431 24.9386C213.538 24.4229 213.592 23.6983 213.592 22.7675V20.6553H218.521ZM210.149 20.6553V27.492H201.553V20.6553H203.021V26.1755H205.118V20.6553H206.583V26.1755H208.68V20.6553H210.149ZM192.884 26.1755H194.153C194.444 26.1755 194.689 26.081 194.884 25.892C195.081 25.7031 195.179 25.4725 195.179 25.1986C195.179 24.9256 195.081 24.6942 194.884 24.5053C194.689 24.3155 194.444 24.221 194.153 24.221H192.884V26.1755ZM194.201 27.492H191.416V20.6553H192.884V22.901H194.201C194.904 22.901 195.486 23.1202 195.948 23.5605C196.41 24.0008 196.642 24.546 196.642 25.1986C196.642 25.8496 196.41 26.3947 195.948 26.8342C195.486 27.2719 194.904 27.492 194.201 27.492ZM198.887 27.492H197.422V20.6553H198.887V27.492ZM185.089 23.6351L187.453 20.6553H188.75V27.492H187.288V22.933L185.089 25.7326L182.895 22.953V27.492H181.428V20.6553H182.749L185.089 23.6351ZM172.804 26.5932C172.088 25.8955 171.73 25.0556 171.73 24.0728C171.73 23.0916 172.088 22.2518 172.804 21.5567C173.522 20.8607 174.4 20.5122 175.442 20.5122C176.482 20.5122 177.36 20.8607 178.078 21.5567C178.795 22.2518 179.152 23.0916 179.152 24.0728C179.152 25.0556 178.795 25.8955 178.078 26.5932C177.36 27.2901 176.482 27.6402 175.442 27.6402C174.4 27.6402 173.522 27.2901 172.804 26.5932ZM173.885 22.478C173.458 22.9122 173.245 23.4444 173.245 24.0762C173.245 24.7072 173.458 25.2377 173.885 25.671C174.311 26.1018 174.83 26.3185 175.442 26.3185C176.054 26.3185 176.572 26.1018 176.998 25.671C177.424 25.2377 177.638 24.7072 177.638 24.0762C177.638 23.4444 177.424 22.9122 176.998 22.478C176.572 22.0446 176.054 21.8279 175.442 21.8279C174.83 21.8279 174.311 22.0446 173.885 22.478ZM167.405 21.9753H166.041V23.9263H167.405C167.697 23.9263 167.942 23.8318 168.137 23.6446C168.332 23.4557 168.43 23.226 168.43 22.953C168.43 22.6799 168.332 22.4485 168.137 22.2596C167.942 22.0698 167.697 21.9753 167.405 21.9753ZM164.573 20.6553H167.454C168.155 20.6553 168.737 20.8745 169.199 21.3157C169.663 21.7551 169.894 22.3003 169.894 22.9495C169.894 23.6004 169.663 24.1456 169.203 24.585C168.742 25.0262 168.158 25.2463 167.454 25.2463H166.041V27.492H164.573V20.6553ZM161.907 20.6553V27.492H160.444V21.9753H157.563V27.492H156.096V20.6553H161.907ZM151.431 27.492H149.969V23.1488L146.602 27.492H145.329V20.6553H146.797V25.0036L150.164 20.6553H151.431V27.492ZM138.953 20.6553V23.6351L141.638 20.6553H143.345L140.808 23.4869L143.541 27.492H141.833L139.83 24.5642L138.953 25.5375V27.492H137.485V20.6553H138.953ZM129.937 25.1986L129.35 24.5642L127.348 27.492H125.641L128.374 23.4869L125.837 20.6553H127.543L129.937 23.2918V20.6553H131.4V23.2918L133.794 20.6553H135.502L132.964 23.4869L135.697 27.492H133.989L131.986 24.5642L131.4 25.1986V27.492H129.937V25.1986ZM122.193 21.9753H120.829V23.9263H122.193C122.485 23.9263 122.73 23.8318 122.925 23.6446C123.12 23.4557 123.218 23.226 123.218 22.953C123.218 22.6799 123.12 22.4485 122.925 22.2596C122.73 22.0698 122.485 21.9753 122.193 21.9753ZM119.361 20.6553H122.242C122.943 20.6553 123.525 20.8745 123.988 21.3157C124.452 21.7551 124.682 22.3003 124.682 22.9495C124.682 23.6004 124.452 24.1456 123.991 24.585C123.53 25.0262 122.946 25.2463 122.242 25.2463H120.829V27.492H119.361V20.6553ZM113.43 26.1755H117.091V27.492H111.961V20.6553H116.992V21.9753H113.43V23.3439H116.209V24.6604H113.43V26.1755ZM105.829 22.7579C105.829 23.2112 105.792 23.6411 105.717 24.045C105.643 24.4489 105.553 24.774 105.45 25.021C105.346 25.2697 105.243 25.4847 105.138 25.6658C105.034 25.8461 104.946 25.977 104.876 26.0567L104.757 26.1755H107.635V21.9753H105.829V22.7579ZM102.901 26.1755H103.292C103.318 26.1503 103.356 26.1104 103.404 26.055C103.453 25.9978 103.542 25.8712 103.665 25.6719C103.789 25.4734 103.898 25.2559 103.99 25.0166C104.084 24.7792 104.171 24.4567 104.249 24.0502C104.327 23.6429 104.364 23.2112 104.364 22.7579V20.6553H109.1V26.1755H109.933V28.9074H108.466V27.492H104.364V28.9074H102.901V26.1755ZM97.2564 22.7579C97.2564 23.2112 97.2191 23.6411 97.1437 24.045C97.0692 24.4489 96.9799 24.774 96.8768 25.021C96.7727 25.2697 96.6705 25.4847 96.5647 25.6658C96.4607 25.8461 96.3723 25.977 96.303 26.0567L96.1842 26.1755H99.0626V21.9753H97.2564V22.7579ZM94.3286 26.1755H94.7195C94.7455 26.1503 94.7827 26.1104 94.8313 26.055C94.8807 25.9978 94.9682 25.8712 95.0922 25.6719C95.2161 25.4734 95.3244 25.2559 95.4172 25.0166C95.5117 24.7792 95.5983 24.4567 95.6763 24.0502C95.7543 23.6429 95.7916 23.2112 95.7916 22.7579V20.6553H100.527V26.1755H101.36V28.9074H99.893V27.492H95.7916V28.9074H94.3286V26.1755ZM86.7776 26.5932C86.0617 25.8955 85.7038 25.0556 85.7038 24.0728C85.7038 23.0916 86.0617 22.2518 86.7776 21.5567C87.4953 20.8607 88.3741 20.5122 89.416 20.5122C90.456 20.5122 91.334 20.8607 92.0517 21.5567C92.7685 22.2518 93.1264 23.0916 93.1264 24.0728C93.1264 25.0556 92.7685 25.8955 92.0517 26.5932C91.334 27.2901 90.456 27.6402 89.416 27.6402C88.3741 27.6402 87.4953 27.2901 86.7776 26.5932ZM87.8584 22.478C87.432 22.9122 87.2188 23.4444 87.2188 24.0762C87.2188 24.7072 87.432 25.2377 87.8584 25.671C88.2849 26.1018 88.804 26.3185 89.416 26.3185C90.0279 26.3185 90.5453 26.1018 90.9717 25.671C91.3982 25.2377 91.6114 24.7072 91.6114 24.0762C91.6114 23.4444 91.3982 22.9122 90.9717 22.478C90.5453 22.0446 90.0279 21.8279 89.416 21.8279C88.804 21.8279 88.2849 22.0446 87.8584 22.478ZM83.4286 20.6553V27.492H81.9656V21.9753H79.0846V27.492H77.6172V20.6553H83.4286ZM194.598 8.11283C194.598 8.56613 194.561 8.99603 194.486 9.39993C194.411 9.80382 194.321 10.1288 194.219 10.3759C194.114 10.6246 194.012 10.8404 193.906 11.0207C193.802 11.201 193.715 11.331 193.644 11.4107L193.526 11.5303H196.404V7.32931H194.598V8.11283ZM191.67 11.5303H192.061C192.087 11.5052 192.124 11.4645 192.173 11.409C192.222 11.3518 192.31 11.2253 192.434 11.0268C192.557 10.8283 192.666 10.6107 192.759 10.3715C192.853 10.134 192.94 9.81162 193.018 9.40512C193.096 8.99776 193.133 8.56613 193.133 8.11283V6.01015H197.869V11.5303H198.702V14.2623H197.234V12.846H193.133V14.2623H191.67V11.5303ZM189.882 6.01015V12.846H188.417V10.0621H185.489V12.846H184.022V6.01015H185.489V8.74554H188.417V6.01015H189.882ZM175.398 11.9481C174.682 11.2495 174.324 10.4105 174.324 9.42766C174.324 8.44566 174.682 7.60666 175.398 6.91154C176.116 6.21556 176.995 5.86714 178.036 5.86714C179.076 5.86714 179.954 6.21556 180.672 6.91154C181.388 7.60666 181.747 8.44566 181.747 9.42766C181.747 10.4105 181.388 11.2495 180.672 11.9481C179.954 12.645 179.076 12.9942 178.036 12.9942C176.995 12.9942 176.116 12.645 175.398 11.9481ZM176.479 7.83288C176.052 8.26711 175.839 8.79928 175.839 9.43026C175.839 10.0621 176.052 10.5925 176.479 11.0259C176.905 11.4567 177.424 11.6733 178.036 11.6733C178.647 11.6733 179.166 11.4567 179.592 11.0259C180.019 10.5925 180.232 10.0621 180.232 9.43026C180.232 8.79928 180.019 8.26711 179.592 7.83288C179.166 7.39951 178.647 7.18283 178.036 7.18283C177.424 7.18283 176.905 7.39951 176.479 7.83288ZM170.625 10.4253C170.926 10.1384 171.076 9.77435 171.076 9.32972C171.076 8.88682 170.926 8.52279 170.625 8.2359C170.325 7.94989 169.92 7.79561 169.412 7.76874V10.8924C169.92 10.8656 170.325 10.7095 170.625 10.4253ZM169.412 12.1648V13.0419H167.948V12.1648C167.037 12.1388 166.288 11.8519 165.703 11.3033C165.118 10.7555 164.825 10.0976 164.825 9.32972C164.825 8.56353 165.118 7.90569 165.705 7.35878C166.291 6.81187 167.04 6.52585 167.948 6.50158V5.76573H169.412V6.50158C170.324 6.52585 171.074 6.81187 171.66 7.35878C172.246 7.90569 172.539 8.56353 172.539 9.32972C172.539 10.0976 172.246 10.7555 171.66 11.3033C171.074 11.8519 170.324 12.1388 169.412 12.1648ZM166.737 8.2359C166.438 8.52279 166.29 8.88682 166.29 9.32972C166.29 9.77435 166.44 10.1384 166.74 10.4253C167.04 10.7095 167.443 10.8656 167.948 10.8924V7.76874C167.44 7.79561 167.037 7.94989 166.737 8.2359ZM160.647 12.846H159.184V8.50286L155.818 12.846H154.545V6.01015H156.013V10.3585L159.379 6.01015H160.647V12.846ZM157.153 4.13541C157.264 4.24722 157.404 4.30269 157.571 4.30269C157.741 4.30269 157.881 4.24722 157.992 4.13541C158.103 4.02447 158.16 3.88493 158.16 3.71765H159.136C159.136 4.15795 158.993 4.52111 158.702 4.80539C158.413 5.09055 158.037 5.23183 157.575 5.23183C157.113 5.23183 156.736 5.09055 156.447 4.80539C156.158 4.52111 156.013 4.15795 156.013 3.71765H156.986C156.986 3.88493 157.042 4.02447 157.153 4.13541ZM151.879 12.846H150.416V8.50286L147.049 12.846H145.777V6.01015H147.244V10.3585L150.611 6.01015H151.879V12.846ZM139.4 6.01015V8.98996L142.085 6.01015H143.793L141.256 8.84175L143.988 12.846H142.28L140.277 9.91823L139.4 10.8924V12.846H137.933V6.01015H139.4ZM132.973 5.86714C133.333 5.86714 133.675 5.91394 133.999 6.00668C134.323 6.10115 134.59 6.21556 134.798 6.34818C135.007 6.48165 135.19 6.61512 135.352 6.7486C135.511 6.88208 135.626 6.99475 135.697 7.08749L135.806 7.2305L134.876 8.15964C134.857 8.13363 134.831 8.0981 134.798 8.05216C134.764 8.00709 134.689 7.92822 134.573 7.81641C134.458 7.70547 134.331 7.60839 134.194 7.52346C134.058 7.43852 133.879 7.36051 133.656 7.28944C133.433 7.2175 133.207 7.18283 132.973 7.18283C132.335 7.18283 131.801 7.39605 131.373 7.82594C130.944 8.25584 130.728 8.78975 130.728 9.42766C130.728 10.0673 130.944 10.6003 131.373 11.0302C131.801 11.4584 132.335 11.6733 132.973 11.6733C133.221 11.6733 133.459 11.6387 133.687 11.5702C133.915 11.5026 134.102 11.4229 134.251 11.3284C134.401 11.2339 134.533 11.1394 134.647 11.045C134.762 10.9488 134.844 10.8656 134.896 10.7954L134.972 10.6965L135.854 11.6257C135.828 11.6638 135.789 11.7141 135.737 11.7756C135.685 11.8372 135.568 11.9481 135.389 12.1041C135.21 12.2627 135.016 12.4005 134.811 12.5193C134.607 12.6398 134.338 12.7472 134.006 12.846C133.674 12.9457 133.33 12.9942 132.973 12.9942C131.931 12.9942 131.052 12.645 130.334 11.9481C129.618 11.2495 129.26 10.4105 129.26 9.42766C129.26 8.44566 129.618 7.60666 130.334 6.91154C131.052 6.21556 131.931 5.86714 132.973 5.86714ZM124.786 7.2305H123.423V8.69874H124.786C125.029 8.69874 125.22 8.632 125.359 8.49766C125.5 8.36505 125.569 8.18737 125.569 7.96462C125.569 7.741 125.5 7.56419 125.359 7.43072C125.22 7.29724 125.029 7.2305 124.786 7.2305ZM123.423 11.6257H124.981C125.25 11.6257 125.471 11.5416 125.647 11.3735C125.825 11.2045 125.912 10.9964 125.912 10.7486C125.912 10.5015 125.825 10.2909 125.647 10.1228C125.471 9.95116 125.25 9.86622 124.981 9.86622H123.423V11.6257ZM125.053 12.846H121.955V6.01015H124.888C125.507 6.01015 126.02 6.19043 126.425 6.55359C126.831 6.91501 127.032 7.33624 127.032 7.81641C127.032 7.99669 127.008 8.16917 126.956 8.33385C126.905 8.49766 126.84 8.63287 126.76 8.74207C126.681 8.84955 126.602 8.94229 126.524 9.0203C126.446 9.09917 126.383 9.15204 126.333 9.18497L126.251 9.23264C126.282 9.24478 126.323 9.26298 126.372 9.28725C126.422 9.31152 126.511 9.37045 126.642 9.46319C126.772 9.55767 126.885 9.65994 126.985 9.77088C127.082 9.88269 127.174 10.0344 127.254 10.2268C127.334 10.4183 127.375 10.6246 127.375 10.8448C127.375 11.3899 127.158 11.8623 126.723 12.2558C126.287 12.6493 125.73 12.846 125.053 12.846ZM113.332 11.9481C112.616 11.2495 112.258 10.4105 112.258 9.42766C112.258 8.44566 112.616 7.60666 113.332 6.91154C114.049 6.21556 114.927 5.86714 115.969 5.86714C117.009 5.86714 117.888 6.21556 118.606 6.91154C119.322 7.60666 119.68 8.44566 119.68 9.42766C119.68 10.4105 119.322 11.2495 118.606 11.9481C117.888 12.645 117.009 12.9942 115.969 12.9942C114.927 12.9942 114.049 12.645 113.332 11.9481ZM114.412 7.83288C113.986 8.26711 113.773 8.79928 113.773 9.43026C113.773 10.0621 113.986 10.5925 114.412 11.0259C114.838 11.4567 115.357 11.6733 115.969 11.6733C116.581 11.6733 117.098 11.4567 117.525 11.0259C117.951 10.5925 118.164 10.0621 118.164 9.43026C118.164 8.79928 117.951 8.26711 117.525 7.83288C117.098 7.39951 116.581 7.18283 115.969 7.18283C115.357 7.18283 114.838 7.39951 114.412 7.83288ZM106.662 6.01015V8.98996L109.348 6.01015H111.055L108.518 8.84175L111.25 12.846H109.543L107.539 9.91823L106.662 10.8924V12.846H105.195V6.01015H106.662ZM100.236 5.86714C100.596 5.86714 100.937 5.91394 101.261 6.00668C101.585 6.10115 101.852 6.21556 102.06 6.34818C102.269 6.48165 102.452 6.61512 102.614 6.7486C102.773 6.88208 102.888 6.99475 102.959 7.08749L103.068 7.2305L102.139 8.15964C102.119 8.13363 102.093 8.0981 102.06 8.05216C102.026 8.00709 101.951 7.92822 101.836 7.81641C101.72 7.70547 101.593 7.60839 101.457 7.52346C101.32 7.43852 101.141 7.36051 100.917 7.28944C100.695 7.2175 100.468 7.18283 100.236 7.18283C99.5966 7.18283 99.0626 7.39605 98.6345 7.82594C98.2055 8.25584 97.9905 8.78975 97.9905 9.42766C97.9905 10.0673 98.2055 10.6003 98.6345 11.0302C99.0626 11.4584 99.5966 11.6733 100.236 11.6733C100.483 11.6733 100.721 11.6387 100.949 11.5702C101.177 11.5026 101.364 11.4229 101.514 11.3284C101.663 11.2339 101.795 11.1394 101.909 11.045C102.024 10.9488 102.106 10.8656 102.158 10.7954L102.234 10.6965L103.116 11.6257C103.09 11.6638 103.051 11.7141 102.999 11.7756C102.947 11.8372 102.829 11.9481 102.651 12.1041C102.471 12.2627 102.278 12.4005 102.073 12.5193C101.87 12.6398 101.6 12.7472 101.268 12.846C100.936 12.9457 100.592 12.9942 100.236 12.9942C99.1927 12.9942 98.3138 12.645 97.5961 11.9481C96.8802 11.2495 96.5223 10.4105 96.5223 9.42766C96.5223 8.44566 96.8802 7.60666 97.5961 6.91154C98.3138 6.21556 99.1927 5.86714 100.236 5.86714ZM88.2892 11.9481C87.5733 11.2495 87.2153 10.4105 87.2153 9.42766C87.2153 8.44566 87.5733 7.60666 88.2892 6.91154C89.0069 6.21556 89.8857 5.86714 90.9275 5.86714C91.9676 5.86714 92.8456 6.21556 93.5633 6.91154C94.28 7.60666 94.638 8.44566 94.638 9.42766C94.638 10.4105 94.28 11.2495 93.5633 11.9481C92.8456 12.645 91.9676 12.9942 90.9275 12.9942C89.8857 12.9942 89.0069 12.645 88.2892 11.9481ZM89.37 7.83288C88.9436 8.26711 88.7304 8.79928 88.7304 9.43026C88.7304 10.0621 88.9436 10.5925 89.37 11.0259C89.7965 11.4567 90.3156 11.6733 90.9275 11.6733C91.5394 11.6733 92.0569 11.4567 92.4833 11.0259C92.9097 10.5925 93.123 10.0621 93.123 9.43026C93.123 8.79928 92.9097 8.26711 92.4833 7.83288C92.0569 7.39951 91.5394 7.18283 90.9275 7.18283C90.3156 7.18283 89.7965 7.39951 89.37 7.83288ZM81.2791 8.98996L83.6435 6.01015H84.9402V12.846H83.4771V8.28791L81.2791 11.0874L79.0846 8.30785V12.846H77.6172V6.01015H78.9381L81.2791 8.98996Z" fill="white"/>
<defs>
<linearGradient id="paint0_linear_1524_8574" x1="32.2818" y1="44.3727" x2="34.9716" y2="16.9404" gradientUnits="userSpaceOnUse">
<stop stop-color="#66CCCE"/>
<stop offset="1" stop-color="#2F385C"/>
</linearGradient>
<linearGradient id="paint1_linear_1524_8574" x1="1.43909" y1="10.2616" x2="71.796" y2="-6.49977" gradientUnits="userSpaceOnUse">
<stop stop-color="#66CCCE"/>
<stop offset="1" stop-color="#2F385C"/>
</linearGradient>
<linearGradient id="paint2_linear_1524_8574" x1="15.2972" y1="39.6824" x2="-4.88006" y2="22.6915" gradientUnits="userSpaceOnUse">
<stop stop-color="#66CCCE"/>
<stop offset="1" stop-color="#2F385C"/>
</linearGradient>
<linearGradient id="paint3_linear_1524_8574" x1="48.4138" y1="38.3322" x2="63.984" y2="28.6783" gradientUnits="userSpaceOnUse">
<stop stop-color="#66CCCE"/>
<stop offset="1" stop-color="#2F385C"/>
</linearGradient>
</defs>
</svg>
