<svg width="85" height="21" viewBox="0 0 85 21" fill="none" xmlns="http://www.w3.org/2000/svg">
<path fill-rule="evenodd" clip-rule="evenodd" d="M6.66946 17.4938L5.60235 20.3008H0L8.47763 0.0439453H11.0337H11.5011H18.5938C21.5387 0.0439453 24.0291 1.0182 26.0649 2.96672C28.1204 4.89594 29.1482 7.29785 29.1482 10.1724C29.1482 13.0662 28.1204 15.4777 26.0649 17.4069C24.0291 19.3362 21.5387 20.3008 18.5938 20.3008H14.2633L14.2632 20.3004L14.2578 20.3008L13.1907 17.4938H12.3756H11.5604H9.93009H6.66946ZM18.0546 15.6417H18.5938C20.2144 15.6417 21.5387 15.1691 22.5665 14.2237C23.5942 13.2591 24.1082 11.9087 24.1082 10.1724C24.1082 8.43606 23.5942 7.08558 22.5665 6.121C21.5387 5.15639 20.2144 4.67408 18.5938 4.67408H16.0737V10.9271L18.0546 15.6417ZM9.93009 8.89908L8.41835 12.8347H9.93009H10.686H11.4418L9.93009 8.89908ZM66.9829 3.02289C69.0298 1.03693 71.509 0.0439453 74.4206 0.0439453C77.333 0.0439453 79.8122 1.03693 81.8583 3.02289C83.9243 4.98994 84.9574 7.37308 84.9574 10.1724C84.9574 12.9717 83.9243 15.3642 81.8583 17.3502C79.8122 19.3172 77.333 20.3008 74.4206 20.3008C71.509 20.3008 69.0298 19.3172 66.9829 17.3502C64.9369 15.3642 63.9136 12.9717 63.9136 10.1724C63.9136 7.37308 64.9369 4.98994 66.9829 3.02289ZM78.3461 6.14369C77.3035 5.10342 75.9952 4.58329 74.4206 4.58329C72.8468 4.58329 71.5385 5.10342 70.4952 6.14369C69.4526 7.16505 68.9309 8.50791 68.9309 10.1724C68.9309 11.8557 69.4526 13.208 70.4952 14.2294C71.5385 15.2318 72.8468 15.7331 74.4206 15.7331C76.0144 15.7331 77.333 15.2318 78.3756 14.2294C79.4189 13.208 79.9399 11.8557 79.9399 10.1724C79.9399 8.50791 79.4086 7.16505 78.3461 6.14369ZM37.9734 0.0439453H30.4133V20.3008H37.9734C40.9184 20.3008 43.4088 19.3362 45.4445 17.4069C47.5001 15.4777 48.5278 13.0662 48.5278 10.1724C48.5278 7.29785 47.5001 4.89594 45.4445 2.96672C43.4088 1.0182 40.9184 0.0439453 37.9734 0.0439453ZM37.9734 15.6417H35.4533V4.67408H37.9734C39.5941 4.67408 40.9184 5.15639 41.9461 6.121C42.9739 7.08558 43.4878 8.43606 43.4878 10.1724C43.4878 11.9087 42.9739 13.2591 41.9461 14.2237C40.9184 15.1691 39.5941 15.6417 37.9734 15.6417ZM63.1936 7.82836H54.833V4.67408H63.9942V0.0439453H49.7929V20.3008H63.9942V15.6417H54.833V12.4874H63.1936V7.82836Z" fill="white" fill-opacity="0.5"/>
</svg>
