<svg width="305" height="311" viewBox="0 0 305 311" fill="none" xmlns="http://www.w3.org/2000/svg">
<mask id="mask0_1240_7498" style="mask-type:alpha" maskUnits="userSpaceOnUse" x="5" y="11" width="300" height="299">
<path d="M15.4853 82.9827C18.5316 38.2241 59.0435 5.53651 103.435 12.0195L238.31 31.7169C276.137 37.2412 304.183 69.6808 304.183 107.909V229.446C304.183 271.437 270.539 305.686 228.554 306.433L83.8907 309.009C38.7695 309.813 2.63302 271.817 5.6974 226.793L15.4853 82.9827Z" fill="#5CB9BE" fill-opacity="1"/>
</mask>
<g mask="url(#mask0_1240_7498)">
<path d="M15.4853 82.9827C18.5316 38.2241 59.0435 5.53651 103.435 12.0195L238.31 31.7169C276.137 37.2412 304.183 69.6808 304.183 107.909V229.446C304.183 271.437 270.539 305.686 228.554 306.433L83.8907 309.009C38.7695 309.813 2.63302 271.817 5.6974 226.793L15.4853 82.9827Z" fill-opacity="1" fill="#426B83"/>
</g>
</svg>
