<svg width="987" height="63" viewBox="0 0 987 63" fill="none" xmlns="http://www.w3.org/2000/svg">
<g clip-path="url(#clip0_214_147)">
<path fill-rule="evenodd" clip-rule="evenodd" d="M989 -252H-3V-251.894H989V-252ZM989 1.52588e-05L176.185 40.935C121.808 43.674 67.5889 33.038 18.2769 9.95801L-3 1.52588e-05V62H989V1.52588e-05Z" fill="url(#paint0_linear_214_147)"/>
<path fill-rule="evenodd" clip-rule="evenodd" d="M989 -252H-3V-251.894H989V-252ZM989 1.52588e-05L176.185 40.935C121.808 43.674 67.5889 33.038 18.2769 9.95801L-3 1.52588e-05V62H989V1.52588e-05Z" fill="#000" fill-opacity="0"/>
<path fill-rule="evenodd" clip-rule="evenodd" d="M135.057 40.4632L161.734 52.905C177.591 60.3001 193.001 63 210.202 61.7015L704.411 14.3325L176.186 40.935C162.44 41.6274 148.705 41.4651 135.057 40.4632Z" fill="#5CB9BE"/>
</g>
<defs>
<linearGradient id="paint0_linear_214_147" x1="493.001" y1="-252" x2="493.001" y2="62" gradientUnits="userSpaceOnUse">
<stop stop-color="#426B83"/>
<stop offset="1" stop-color="#426B83"/>
</linearGradient>
<clipPath id="clip0_214_147">
<rect width="987" height="63" fill="white"/>
</clipPath>
</defs>
</svg>
